<mxfile host="65bd71144e">
    <diagram name="ページ1" id="iKTciT4tVMa1wWERPG-i">
        <mxGraphModel dx="541" dy="621" grid="1" gridSize="10" guides="1" tooltips="1" connect="1" arrows="1" fold="1" page="1" pageScale="1" pageWidth="827" pageHeight="583" math="0" shadow="0">
            <root>
                <mxCell id="0"/>
                <mxCell id="1" parent="0"/>
                <mxCell id="pljDoT1VVw8l4GdMfAcl-1" value="ユーザー" style="shape=umlActor;verticalLabelPosition=bottom;verticalAlign=top;html=1;" parent="1" vertex="1">
                    <mxGeometry x="20" y="130" width="30" height="60" as="geometry"/>
                </mxCell>
                <mxCell id="pljDoT1VVw8l4GdMfAcl-2" value="" style="endArrow=classic;html=1;rounded=0;exitX=1;exitY=0.3333333333333333;exitDx=0;exitDy=0;exitPerimeter=0;entryX=-0.029;entryY=0.574;entryDx=0;entryDy=0;entryPerimeter=0;" parent="1" source="pljDoT1VVw8l4GdMfAcl-1" target="pljDoT1VVw8l4GdMfAcl-3" edge="1">
                    <mxGeometry width="50" height="50" relative="1" as="geometry">
                        <mxPoint x="230" y="150" as="sourcePoint"/>
                        <mxPoint x="210" y="100" as="targetPoint"/>
                    </mxGeometry>
                </mxCell>
                <mxCell id="pljDoT1VVw8l4GdMfAcl-3" value="システムメニュー" style="shape=umlBoundary;whiteSpace=wrap;html=1;" parent="1" vertex="1">
                    <mxGeometry x="230" y="60" width="70" height="50" as="geometry"/>
                </mxCell>
                <mxCell id="pljDoT1VVw8l4GdMfAcl-4" value="足し算入力画面" style="shape=umlBoundary;whiteSpace=wrap;html=1;" parent="1" vertex="1">
                    <mxGeometry x="227.5" y="150" width="75" height="60" as="geometry"/>
                </mxCell>
                <mxCell id="pljDoT1VVw8l4GdMfAcl-5" value="" style="endArrow=classic;html=1;rounded=0;entryX=0.025;entryY=0.519;entryDx=0;entryDy=0;entryPerimeter=0;" parent="1" source="pljDoT1VVw8l4GdMfAcl-1" target="pljDoT1VVw8l4GdMfAcl-4" edge="1">
                    <mxGeometry width="50" height="50" relative="1" as="geometry">
                        <mxPoint x="170" y="231" as="sourcePoint"/>
                        <mxPoint x="258" y="180" as="targetPoint"/>
                    </mxGeometry>
                </mxCell>
                <mxCell id="pljDoT1VVw8l4GdMfAcl-6" value="表示" style="ellipse;shape=umlControl;whiteSpace=wrap;html=1;" parent="1" vertex="1">
                    <mxGeometry x="440" y="90" width="54" height="60" as="geometry"/>
                </mxCell>
                <mxCell id="pljDoT1VVw8l4GdMfAcl-7" value="" style="endArrow=classic;html=1;rounded=0;entryX=0.006;entryY=0.556;entryDx=0;entryDy=0;entryPerimeter=0;exitX=0.959;exitY=0.645;exitDx=0;exitDy=0;exitPerimeter=0;" parent="1" source="pljDoT1VVw8l4GdMfAcl-3" target="pljDoT1VVw8l4GdMfAcl-6" edge="1">
                    <mxGeometry width="50" height="50" relative="1" as="geometry">
                        <mxPoint x="240" y="140" as="sourcePoint"/>
                        <mxPoint x="290" y="90" as="targetPoint"/>
                    </mxGeometry>
                </mxCell>
                <mxCell id="pljDoT1VVw8l4GdMfAcl-8" value="" style="endArrow=classic;html=1;rounded=0;exitX=0.07;exitY=0.89;exitDx=0;exitDy=0;exitPerimeter=0;entryX=0.988;entryY=0.544;entryDx=0;entryDy=0;entryPerimeter=0;" parent="1" source="pljDoT1VVw8l4GdMfAcl-6" target="pljDoT1VVw8l4GdMfAcl-4" edge="1">
                    <mxGeometry width="50" height="50" relative="1" as="geometry">
                        <mxPoint x="240" y="140" as="sourcePoint"/>
                        <mxPoint x="290" y="90" as="targetPoint"/>
                    </mxGeometry>
                </mxCell>
                <mxCell id="pljDoT1VVw8l4GdMfAcl-9" value="足し算結果表示画面" style="shape=umlBoundary;whiteSpace=wrap;html=1;" parent="1" vertex="1">
                    <mxGeometry x="215" y="310" width="75" height="60" as="geometry"/>
                </mxCell>
                <mxCell id="pljDoT1VVw8l4GdMfAcl-10" value="" style="endArrow=classic;html=1;rounded=0;exitX=0.967;exitY=0.833;exitDx=0;exitDy=0;exitPerimeter=0;" parent="1" source="pljDoT1VVw8l4GdMfAcl-4" target="pljDoT1VVw8l4GdMfAcl-11" edge="1">
                    <mxGeometry width="50" height="50" relative="1" as="geometry">
                        <mxPoint x="340" y="220" as="sourcePoint"/>
                        <mxPoint x="360" y="240" as="targetPoint"/>
                    </mxGeometry>
                </mxCell>
                <mxCell id="pljDoT1VVw8l4GdMfAcl-11" value="２つの整数を設定" style="ellipse;shape=umlControl;whiteSpace=wrap;html=1;" parent="1" vertex="1">
                    <mxGeometry x="344" y="200" width="70" height="80" as="geometry"/>
                </mxCell>
                <mxCell id="pljDoT1VVw8l4GdMfAcl-12" value="" style="endArrow=classic;html=1;rounded=0;entryX=0.971;entryY=0.293;entryDx=0;entryDy=0;entryPerimeter=0;" parent="1" source="pljDoT1VVw8l4GdMfAcl-11" target="pljDoT1VVw8l4GdMfAcl-9" edge="1">
                    <mxGeometry width="50" height="50" relative="1" as="geometry">
                        <mxPoint x="340" y="220" as="sourcePoint"/>
                        <mxPoint x="300" y="380" as="targetPoint"/>
                    </mxGeometry>
                </mxCell>
                <mxCell id="pljDoT1VVw8l4GdMfAcl-13" value="RoboDog" style="ellipse;shape=umlEntity;whiteSpace=wrap;html=1;" parent="1" vertex="1">
                    <mxGeometry x="494" y="240" width="66" height="60" as="geometry"/>
                </mxCell>
                <mxCell id="pljDoT1VVw8l4GdMfAcl-14" value="" style="endArrow=classic;startArrow=classic;html=1;rounded=0;exitX=0.987;exitY=0.775;exitDx=0;exitDy=0;exitPerimeter=0;entryX=0;entryY=0.5;entryDx=0;entryDy=0;" parent="1" source="pljDoT1VVw8l4GdMfAcl-11" target="pljDoT1VVw8l4GdMfAcl-13" edge="1">
                    <mxGeometry width="50" height="50" relative="1" as="geometry">
                        <mxPoint x="370" y="230" as="sourcePoint"/>
                        <mxPoint x="420" y="180" as="targetPoint"/>
                    </mxGeometry>
                </mxCell>
                <mxCell id="pljDoT1VVw8l4GdMfAcl-15" value="足し算結果表示" style="ellipse;shape=umlControl;whiteSpace=wrap;html=1;" parent="1" vertex="1">
                    <mxGeometry x="370" y="330" width="70" height="80" as="geometry"/>
                </mxCell>
                <mxCell id="pljDoT1VVw8l4GdMfAcl-17" value="" style="endArrow=classic;startArrow=classic;html=1;rounded=0;exitX=1.012;exitY=0.564;exitDx=0;exitDy=0;exitPerimeter=0;entryX=0.023;entryY=0.688;entryDx=0;entryDy=0;entryPerimeter=0;" parent="1" source="pljDoT1VVw8l4GdMfAcl-15" target="pljDoT1VVw8l4GdMfAcl-13" edge="1">
                    <mxGeometry width="50" height="50" relative="1" as="geometry">
                        <mxPoint x="450" y="330" as="sourcePoint"/>
                        <mxPoint x="531" y="338" as="targetPoint"/>
                    </mxGeometry>
                </mxCell>
                <mxCell id="pljDoT1VVw8l4GdMfAcl-19" value="" style="endArrow=classic;html=1;rounded=0;entryX=1.01;entryY=0.712;entryDx=0;entryDy=0;entryPerimeter=0;" parent="1" source="pljDoT1VVw8l4GdMfAcl-15" target="pljDoT1VVw8l4GdMfAcl-9" edge="1">
                    <mxGeometry width="50" height="50" relative="1" as="geometry">
                        <mxPoint x="399" y="340" as="sourcePoint"/>
                        <mxPoint x="320" y="413" as="targetPoint"/>
                    </mxGeometry>
                </mxCell>
                <mxCell id="pljDoT1VVw8l4GdMfAcl-20" value="２つの整数を入力" style="text;html=1;align=center;verticalAlign=middle;resizable=0;points=[];autosize=1;strokeColor=none;fillColor=none;" parent="1" vertex="1">
                    <mxGeometry x="60" y="170" width="120" height="30" as="geometry"/>
                </mxCell>
                <mxCell id="pljDoT1VVw8l4GdMfAcl-23" value="２つの制度の足し算を選択" style="text;html=1;align=center;verticalAlign=middle;resizable=0;points=[];autosize=1;strokeColor=none;fillColor=none;" parent="1" vertex="1">
                    <mxGeometry x="5" y="78" width="170" height="30" as="geometry"/>
                </mxCell>
                <mxCell id="pljDoT1VVw8l4GdMfAcl-24" value="結果を表示" style="text;html=1;align=center;verticalAlign=middle;resizable=0;points=[];autosize=1;strokeColor=none;fillColor=none;" parent="1" vertex="1">
                    <mxGeometry x="290" y="335" width="80" height="30" as="geometry"/>
                </mxCell>
            </root>
        </mxGraphModel>
    </diagram>
</mxfile>